<svg width="7" height="10" viewBox="0 0 7 10" fill="none" xmlns="http://www.w3.org/2000/svg">
<path fill-rule="evenodd" clip-rule="evenodd" d="M5.41667 0.625C5.41667 0.28 5.69667 0 6.04167 0C6.38667 0 6.66667 0.28 6.66667 0.625V9.375C6.66667 9.72 6.38667 10 6.04167 10C5.69667 10 5.41667 9.72 5.41667 9.375V8.33333H1.25V9.375C1.25 9.72 0.97 10 0.625 10C0.28 10 0 9.72 0 9.375V0.625C0 0.28 0.28 0 0.625 0C0.97 0 1.25 0.28 1.25 0.625V1.25H5.41667V0.625ZM1.25 7.5H5.41667V6.25H1.25V7.5ZM5.41667 5.41667H1.25V4.16667H5.41667V5.41667ZM1.25 3.33333H5.41667V2.08333H1.25V3.33333Z" fill="#F1F1EF"/>
</svg>
