<svg width="12" height="3" viewBox="0 0 12 3" fill="none" xmlns="http://www.w3.org/2000/svg">
<g opacity="0.5">
<path d="M8.96021 1.12001C8.96021 1.41706 9.07821 1.70194 9.28825 1.91198C9.49829 2.12203 9.78317 2.24003 10.0802 2.24003C10.3773 2.24003 10.6621 2.12203 10.8722 1.91198C11.0822 1.70194 11.2002 1.41706 11.2002 1.12001C11.2002 0.822968 11.0822 0.538088 10.8722 0.328045C10.6621 0.118001 10.3773 0 10.0802 0C9.78317 0 9.49829 0.118001 9.28825 0.328045C9.07821 0.538088 8.96021 0.822968 8.96021 1.12001Z" fill="#F1F1EF"/>
<path d="M4.47925 1.12001C4.47925 1.41706 4.59725 1.70194 4.80729 1.91198C5.01734 2.12203 5.30222 2.24003 5.59926 2.24003C5.89631 2.24003 6.18119 2.12203 6.39123 1.91198C6.60127 1.70194 6.71928 1.41706 6.71928 1.12001C6.71928 0.822968 6.60127 0.538088 6.39123 0.328045C6.18119 0.118001 5.89631 0 5.59926 0C5.30222 0 5.01734 0.118001 4.80729 0.328045C4.59725 0.538088 4.47925 0.822968 4.47925 1.12001Z" fill="#F1F1EF"/>
<path d="M0 1.12001C0 1.41706 0.118001 1.70194 0.328044 1.91198C0.538088 2.12203 0.822968 2.24003 1.12001 2.24003C1.41706 2.24003 1.70194 2.12203 1.91198 1.91198C2.12203 1.70194 2.24003 1.41706 2.24003 1.12001C2.24003 0.822968 2.12203 0.538088 1.91198 0.328045C1.70194 0.118001 1.41706 0 1.12001 0C0.822968 0 0.538088 0.118001 0.328044 0.328045C0.118001 0.538088 0 0.822968 0 1.12001H0Z" fill="#F1F1EF"/>
</g>
</svg>
