<svg width="10" height="10" viewBox="0 0 10 10" fill="none" xmlns="http://www.w3.org/2000/svg">
<path fill-rule="evenodd" clip-rule="evenodd" d="M4.58481 0H5.41519C5.87642 0 6.25016 0.373734 6.25016 0.834965V9.16504C6.25016 9.62627 5.87642 10 5.41519 10H4.58481C4.12358 10 3.74984 9.62585 3.74984 9.16504V0.834965C3.74984 0.373734 4.12358 0 4.58481 0ZM9.16504 2.4999H8.33465C7.87342 2.4999 7.49969 2.87363 7.49969 3.33486V9.16503C7.49969 9.62585 7.87342 10 8.33465 10H9.16504C9.62627 10 10 9.62627 10 9.16503V3.33486C10 2.87363 9.62627 2.4999 9.16504 2.4999ZM1.66535 4.58314H0.834965C0.373734 4.58314 0 4.95688 0 5.41811V9.16503C0 9.62585 0.373734 10 0.834965 10H1.66535C2.12658 10 2.50031 9.62627 2.50031 9.16503V5.41811C2.50031 4.95688 2.12658 4.58314 1.66535 4.58314Z" fill="#F1F1EF"/>
</svg>
