<svg width="10" height="10" viewBox="0 0 10 10" fill="none" xmlns="http://www.w3.org/2000/svg">
<path fill-rule="evenodd" clip-rule="evenodd" d="M8.63636 0H1.36364C0.610455 0 0 0.610455 0 1.36364V8.63636C0 9.38955 0.610455 10 1.36364 10H8.63636C9.38955 10 10 9.38955 10 8.63636V1.36364C10 0.610455 9.38909 0 8.63636 0ZM5 1.81818C6.12773 1.81818 7.04545 2.73591 7.04545 3.86364C7.04545 4.99136 6.12773 5.90909 5 5.90909C3.87227 5.90909 2.95455 4.99136 2.95455 3.86364C2.95455 2.73591 3.87227 1.81818 5 1.81818ZM4.99951 6.81818C3.31997 6.81818 1.94406 7.82318 1.82906 9.09091H8.16997C8.05542 7.82318 6.67906 6.81818 4.99951 6.81818Z" fill="#F1F1EF"/>
</svg>
