<svg width="10" height="10" viewBox="0 0 10 10" fill="none" xmlns="http://www.w3.org/2000/svg">
<path fill-rule="evenodd" clip-rule="evenodd" d="M2.32092 0.0954581C2.60274 -0.0445416 2.93774 -0.0299962 3.20547 0.135458C3.4732 0.301367 3.63638 0.593639 3.63638 0.909093V8.1818C3.63638 8.68362 3.2291 9.09089 2.72729 9.09089C2.22547 9.09089 1.8182 8.68362 1.8182 8.1818V2.38L1.31593 2.63136C0.866382 2.85545 0.320474 2.67363 0.0959294 2.22454C-0.128161 1.775 0.0536568 1.22909 0.502747 1.00455L2.32092 0.0954581ZM6.36362 3.18181H7.04544C8.67453 3.18181 9.99998 4.50726 9.99998 6.13635C9.99998 7.76544 8.67453 9.09089 7.04544 9.09089H5.45453C4.95272 9.09089 4.54544 8.68362 4.54544 8.1818C4.54544 7.67998 4.95272 7.27271 5.45453 7.27271H7.04544C7.6718 7.27271 8.1818 6.76317 8.1818 6.13635C8.1818 5.50953 7.6718 4.99999 7.04544 4.99999H4.54544V1.55027e-09H9.09089C9.59271 1.55027e-09 9.99998 0.407272 9.99998 0.909089C9.99998 1.41091 9.59271 1.81818 9.09089 1.81818H6.36362V3.18181Z" fill="#F1F1EF"/>
</svg>
