<svg width="10" height="10" viewBox="0 0 10 10" fill="none" xmlns="http://www.w3.org/2000/svg">
<path fill-rule="evenodd" clip-rule="evenodd" d="M1.68 0C0.752162 0 0 0.75216 0 1.68V8.31972C0 9.24755 0.75216 9.99972 1.68 9.99972H8.31972C9.24755 9.99972 9.99972 9.24756 9.99972 8.31972V1.68C9.99972 0.752162 9.24756 0 8.31972 0H1.68ZM9.16704 2.91659C9.16704 3.60693 8.60742 4.16655 7.91708 4.16655C7.22674 4.16655 6.66711 3.60693 6.66711 2.91659C6.66711 2.22625 7.22674 1.66663 7.91708 1.66663C8.60742 1.66663 9.16704 2.22625 9.16704 2.91659ZM8.74009 8.19569V8.31974C8.74009 8.5517 8.55205 8.73974 8.32009 8.73974H1.68037C1.44842 8.73974 1.26038 8.5517 1.26038 8.31974V6.52907C1.26038 6.41768 1.30463 6.31085 1.38339 6.23208L3.27597 4.3395C3.76803 3.84744 4.56582 3.84744 5.05788 4.33951L8.61708 7.8987C8.69584 7.97747 8.74009 8.0843 8.74009 8.19569Z" fill="#F1F1EF"/>
</svg>
