<svg width="10" height="10" viewBox="0 0 10 10" fill="none" xmlns="http://www.w3.org/2000/svg">
<path fill-rule="evenodd" clip-rule="evenodd" d="M4.55829 0.9325C5.80163 -0.310833 7.82496 -0.310833 9.06788 0.9325C10.3112 2.17583 10.3112 4.19875 9.06829 5.4425L7.69746 6.81333L6.81329 5.92917L8.18413 4.55833C8.93996 3.8025 8.93996 2.57292 8.18413 1.81708C7.80621 1.43917 7.30954 1.25 6.81329 1.25C6.31663 1.25 5.82038 1.43875 5.44246 1.81667L4.07163 3.1875L3.18746 2.30333L4.55829 0.9325ZM3.09959 6.90085C3.22167 7.02293 3.38167 7.08418 3.54167 7.08418C3.70167 7.08418 3.86167 7.02293 3.98375 6.90085L6.90125 3.98335C7.14542 3.73918 7.14542 3.34335 6.90125 3.09918C6.65709 2.85501 6.26125 2.85501 6.01709 3.09918L3.09959 6.01668C2.85542 6.26085 2.85542 6.65668 3.09959 6.90085ZM4.55833 8.1833C3.80292 8.93914 2.57292 8.93955 1.81667 8.1833C1.06083 7.42747 1.06083 6.19789 1.81667 5.44205L3.1875 4.07122L2.30333 3.18705L0.9325 4.55789C-0.310833 5.80122 -0.310833 7.82414 0.9325 9.06747C1.55417 9.68914 2.37083 9.99997 3.18708 9.99997C4.00333 9.99997 4.82042 9.68914 5.44167 9.06747L6.8125 7.69664L5.92833 6.81247L4.55833 8.1833Z" fill="#F1F1EF"/>
</svg>
