<svg width="100" height="100" viewBox="0 0 100 100" fill="none" xmlns="http://www.w3.org/2000/svg">
<rect x="0.5" y="0.5" width="99" height="99" rx="29.5" fill="url(#paint0_linear_1274_2900)" stroke="url(#paint1_linear_1274_2900)"/>
<rect x="10.5" y="10.5" width="79" height="79" rx="22.5" fill="url(#paint2_linear_1274_2900)" stroke="url(#paint3_linear_1274_2900)"/>
<rect x="20.5" y="20.5" width="59" height="59" rx="17.5" fill="url(#paint4_linear_1274_2900)" stroke="url(#paint5_linear_1274_2900)"/>
<path fill-rule="evenodd" clip-rule="evenodd" d="M50 51V100H51V51L100 51V50L51 50V0H50V50L0 50V51L50 51Z" fill="url(#paint6_linear_1274_2900)"/>
<path d="M0.500014 64.5C5.75847 64.5004 8.4006 64.5125 10.6148 64.8632C23.2376 66.8625 33.1376 76.7624 35.1368 89.3852C35.4875 91.5994 35.4996 94.2415 35.5 99.5C30.2415 99.4996 27.5994 99.4875 25.3852 99.1368C12.7624 97.1375 2.86245 87.2376 0.863194 74.6148C0.512496 72.4006 0.500424 69.7585 0.500014 64.5Z" fill="url(#paint7_linear_1274_2900)" stroke="url(#paint8_linear_1274_2900)"/>
<path d="M5.79791 75.4548L8.12429 77.7812C9.03646 78.6934 10.2032 78.7995 10.9669 78.0358C11.582 77.4206 11.6528 76.5014 11.1224 75.8155C11.8083 76.3458 12.7134 76.2892 13.3286 75.674C14.0923 74.9104 13.9862 73.7436 13.074 72.8315L10.7477 70.5051L5.79791 75.4548ZM7.40304 75.6458L8.83847 74.2103L10.1466 75.5185C10.5992 75.971 10.6133 76.5791 10.189 77.0034C9.77185 77.4206 9.16374 77.4065 8.71119 76.9539L7.40304 75.6458ZM9.51022 73.5386L10.9527 72.0961L12.2609 73.4042C12.7134 73.8568 12.7276 74.479 12.3104 74.8962C11.8932 75.3134 11.2709 75.2993 10.8184 74.8467L9.51022 73.5386ZM10.7918 80.4488L14.2213 83.8783L14.9496 83.1499L12.4394 80.6397L13.8819 79.1972L16.1234 81.4387L16.8023 80.7599L14.5607 78.5184L15.9396 77.1395L18.4145 79.6144L19.1357 78.8931L15.7416 75.499L10.7918 80.4488ZM16.6321 86.289L17.5584 87.2154L21.7303 83.0434L23.2436 84.5566L24.0214 83.7788L20.0686 79.8261L19.2908 80.6039L20.804 82.1171L16.6321 86.289ZM18.9299 88.5868L19.8208 89.4778L21.5745 88.6717L23.6604 90.7576L22.8472 92.5042L23.7948 93.4517L26.8919 86.6493L25.7322 85.4897L18.9299 88.5868ZM22.5573 88.212L25.4777 86.8615L24.12 89.7747L22.5573 88.212Z" fill="#F1F1EF"/>
<path fill-rule="evenodd" clip-rule="evenodd" d="M74.0047 44.1366C74.7031 44.1366 75.0523 44.1366 75.3191 44.2726C75.5537 44.3923 75.7445 44.5832 75.8641 44.818C76 45.085 76 45.4345 76 46.1334V53.8666C76 54.5655 76 54.915 75.8641 55.182C75.7445 55.4168 75.5537 55.6077 75.3191 55.7273C75.0523 55.8634 74.7031 55.8634 74.0048 55.8634H73.6233C63.8403 55.8713 55.8788 63.8435 55.8788 73.6364V74.0032C55.8788 74.7021 55.8788 75.0516 55.7429 75.3186C55.6234 75.5534 55.4326 75.7443 55.1979 75.864C54.9312 76 54.582 76 53.8836 76L46.1164 76C45.418 76 45.0688 76 44.8021 75.864C44.5674 75.7443 44.3766 75.5534 44.2571 75.3186C44.1212 75.0516 44.1212 74.7021 44.1212 74.0032V73.6364C44.1212 63.8466 36.1647 55.8764 26.386 55.8634L25.9953 55.8634C25.2969 55.8634 24.9476 55.8634 24.6809 55.7273C24.4463 55.6077 24.2555 55.4168 24.1359 55.182C24 54.915 24 54.5655 24 53.8666L24 46.1334C24 45.4345 24 45.085 24.1359 44.818C24.2555 44.5832 24.4463 44.3923 24.6809 44.2726C24.9477 44.1366 25.2969 44.1366 25.9953 44.1366L26.381 44.1366C31.1192 44.1317 35.565 42.286 38.9213 38.931C42.2785 35.5751 44.1168 31.1161 44.1168 26.3636V25.9968C44.1168 25.2979 44.1168 24.9484 44.2527 24.6814C44.3722 24.4466 44.563 24.2557 44.7977 24.136C45.0644 24 45.4136 24 46.1121 24L53.8836 24C54.582 24 54.9312 24 55.1979 24.136C55.4326 24.2557 55.6234 24.4466 55.7429 24.6814C55.8788 24.9484 55.8788 25.2979 55.8788 25.9968V26.3636C55.8788 36.1561 63.8397 44.1281 73.6221 44.1366H74.0047ZM50.0073 43.9802C49.1581 45.1172 48.2213 46.2007 47.2005 47.2222C46.1893 48.2342 45.1174 49.1637 43.993 50.0072C46.2717 51.7143 48.2964 53.7433 49.999 56.0264C51.7043 53.7395 53.7328 51.7074 56.0164 49.9985C53.7366 48.2919 51.7109 46.2631 50.0073 43.9802ZM26.362 53.4998L26.362 46.464C26.6712 46.464 26.9792 46.4692 27.2859 46.4795C32.3117 46.2535 37.0064 44.1861 40.5907 40.6032C44.3937 36.8016 46.4788 31.7401 46.4788 26.3636L53.4729 26.3636C53.4729 33.6125 50.6534 40.4238 45.5302 45.551C43.7741 47.3085 41.8201 48.7951 39.7186 49.99C43.2275 51.9858 46.2505 54.7423 48.5618 58.0339C47.0129 60.5354 45.8271 63.2848 45.0788 66.2078C42.2351 59.0225 35.3739 53.8512 27.2836 53.4843C26.9773 53.4946 26.67 53.4997 26.362 53.4998ZM51.4362 41.885C53.7541 45.1995 56.7924 47.9744 60.3218 49.9798C52.0678 54.6363 46.4832 63.4933 46.4832 73.632V73.6364H53.4773C53.4773 62.5334 62.5041 53.4997 73.5985 53.4997C73.621 53.4998 73.6435 53.4997 73.6661 53.4997V46.5003C65.1529 46.5003 57.8572 41.1811 54.9231 33.6895C54.1866 36.5848 53.0131 39.3437 51.4362 41.885Z" fill="#F1F1EF"/>
<defs>
<linearGradient id="paint0_linear_1274_2900" x1="1.81818" y1="1.57895" x2="34.276" y2="63.3043" gradientUnits="userSpaceOnUse">
<stop stop-color="#1A1A1A"/>
<stop offset="1" stop-color="#101010"/>
</linearGradient>
<linearGradient id="paint1_linear_1274_2900" x1="7.32143" y1="16.6" x2="53.9093" y2="58.2216" gradientUnits="userSpaceOnUse">
<stop stop-color="white" stop-opacity="0.1"/>
<stop offset="1" stop-opacity="0"/>
</linearGradient>
<linearGradient id="paint2_linear_1274_2900" x1="11.4545" y1="11.2632" x2="37.4208" y2="60.6435" gradientUnits="userSpaceOnUse">
<stop stop-color="#1A1A1A"/>
<stop offset="1" stop-color="#111111"/>
</linearGradient>
<linearGradient id="paint3_linear_1274_2900" x1="15.8571" y1="23.28" x2="53.1274" y2="56.5773" gradientUnits="userSpaceOnUse">
<stop stop-color="white" stop-opacity="0.11"/>
<stop offset="1" stop-color="white" stop-opacity="0.04"/>
</linearGradient>
<linearGradient id="paint4_linear_1274_2900" x1="21.0909" y1="20.9474" x2="40.5656" y2="57.9826" gradientUnits="userSpaceOnUse">
<stop stop-color="#1A1A1A"/>
<stop offset="1" stop-color="#111111"/>
</linearGradient>
<linearGradient id="paint5_linear_1274_2900" x1="24.3929" y1="29.96" x2="52.3456" y2="54.9329" gradientUnits="userSpaceOnUse">
<stop stop-color="white" stop-opacity="0.11"/>
<stop offset="1" stop-color="white" stop-opacity="0.04"/>
</linearGradient>
<linearGradient id="paint6_linear_1274_2900" x1="22.5" y1="21" x2="69.0001" y2="71.9999" gradientUnits="userSpaceOnUse">
<stop stop-color="#333333"/>
<stop offset="1" stop-color="#1B1B1B" stop-opacity="0.46"/>
</linearGradient>
<linearGradient id="paint7_linear_1274_2900" x1="6.05438e-07" y1="52" x2="-1.33608" y2="77.1636" gradientUnits="userSpaceOnUse">
<stop stop-color="#A594FD"/>
<stop offset="1" stop-color="#7053FF"/>
</linearGradient>
<linearGradient id="paint8_linear_1274_2900" x1="2.63571" y1="69.976" x2="19.4073" y2="84.9598" gradientUnits="userSpaceOnUse">
<stop stop-color="white" stop-opacity="0.3"/>
<stop offset="1" stop-opacity="0"/>
</linearGradient>
</defs>
</svg>
