<svg width="197" height="34" viewBox="0 0 197 34" fill="none" xmlns="http://www.w3.org/2000/svg">
<path d="M10.2068 17.0016C15.9611 13.5314 19.8098 7.21569 19.8098 0H14.1499C14.1499 7.82405 7.81479 14.1667 0 14.1667V19.8365C3.80744 19.8365 7.26077 21.3393 9.80808 23.7891C9.87536 23.8538 9.942 23.9192 10.008 23.9852C10.9355 24.914 11.7346 25.9707 12.3765 27.1265C13.0412 25.0328 14.0015 23.071 15.2082 21.2901C14.8281 20.8346 14.428 20.3965 14.0093 19.9773L14.0082 19.9763C12.8705 18.8384 11.5942 17.8376 10.2068 17.0016Z" fill="black"/>
<path d="M23.7529 16.9984C17.9986 20.4686 14.1498 26.7843 14.1498 34L19.8098 34C19.8098 26.1759 26.1449 19.8333 33.9597 19.8333L33.9597 14.1635C30.1522 14.1635 26.6989 12.6607 24.1516 10.2109C24.0843 10.1462 24.0177 10.0808 23.9517 10.0148C23.0241 9.08599 22.225 8.02932 21.5832 6.87346C20.9185 8.96718 19.9582 10.929 18.7514 12.7099C19.1316 13.1654 19.5317 13.6035 19.9504 14.0227L19.9514 14.0237C21.0891 15.1616 22.3655 16.1624 23.7529 16.9984Z" fill="black"/>
<path d="M108.335 13.7283C111.474 13.7283 113.989 16.1051 113.989 19.4521C113.989 22.7991 111.469 25.1759 108.335 25.1759C105.201 25.1759 102.681 22.7991 102.681 19.4521C102.681 16.1051 105.201 13.7283 108.335 13.7283ZM191.8 17.6243H180.783C181.504 15.1263 183.695 13.4857 186.285 13.4857C188.875 13.4857 191.079 15.1263 191.802 17.6243H191.8ZM141.161 28.591H144.644C144.799 28.591 144.938 28.4548 144.938 28.2974V10.6047C144.938 10.4472 144.801 10.311 144.644 10.311H141.161C141.005 10.311 140.867 10.4472 140.867 10.6047V28.2952C140.867 28.4527 141.003 28.5889 141.161 28.5889M92.1276 19.6904C92.1276 16.3795 93.9894 14.1581 97.645 14.0368C97.8024 14.0368 97.9237 13.9155 97.9237 13.7602V10.3132C97.9237 10.1408 97.7875 10.0195 97.6152 10.0195C95.0618 10.0195 93.1127 11.226 92.1339 13.2793V10.6089C92.1339 10.4515 91.9978 10.3153 91.8403 10.3153H88.3571C88.1996 10.3153 88.0634 10.4515 88.0634 10.6089V28.2952C88.0634 28.4527 88.1996 28.5889 88.3571 28.5889H91.8403C91.9956 28.5889 92.1339 28.4527 92.1339 28.2952V19.6904H92.1297H92.1276ZM124.489 18.4137C124.489 15.622 126.351 13.724 129.249 13.724C132.147 13.724 133.803 15.622 133.803 18.4137V28.291C133.803 28.4484 133.939 28.5846 134.096 28.5846H137.58C137.735 28.5846 137.873 28.4484 137.873 28.291V17.6222C137.873 12.9687 134.941 9.86421 130.388 9.86421C127.868 9.86421 125.734 10.8281 124.457 12.6197V10.6004C124.457 10.443 124.321 10.3068 124.164 10.3068H120.717C120.561 10.3068 120.423 10.443 120.423 10.6004V28.2952C120.423 28.4527 120.559 28.5889 120.717 28.5889H124.2C124.355 28.5889 124.494 28.4527 124.494 28.2952V18.4137H124.489ZM162.232 17.137C162.283 17.2583 162.39 17.3094 162.49 17.3094H166.199C166.42 17.3094 166.577 17.1519 166.526 16.9306C165.541 12.7559 161.803 9.85995 157.062 9.85995C151.44 9.85995 147.236 13.9624 147.236 19.4436C147.236 24.9248 151.44 29.0293 157.062 29.0293C161.8 29.0293 165.511 26.1674 166.509 21.9586C166.56 21.7374 166.424 21.5799 166.201 21.5799H162.49C162.369 21.5799 162.268 21.6501 162.232 21.7523C161.441 23.8226 159.473 25.1631 157.06 25.1631C153.889 25.1631 151.372 22.7864 151.372 19.4393C151.372 16.0923 153.891 13.7155 157.06 13.7155C159.473 13.7155 161.492 15.0582 162.232 17.1264M195.388 23.2992C195.488 23.0566 195.352 22.8502 195.094 22.8502H191.334C191.249 22.8502 191.179 22.8864 191.128 22.9715C190.143 24.4907 188.366 25.4036 186.353 25.4036C183.591 25.4036 181.302 23.612 180.695 20.9224H195.675C195.811 20.9224 195.918 20.8224 195.932 20.6798C195.984 20.2649 196.018 19.8372 196.018 19.4372C196.018 13.9198 191.809 9.85144 186.277 9.85144C180.744 9.85144 176.535 13.9538 176.535 19.4372C176.535 24.9206 180.744 29.023 186.347 29.023C190.585 29.023 193.969 26.7611 195.381 23.2992M108.331 29.023C113.918 29.023 118.123 24.9184 118.123 19.4372C118.123 13.956 113.918 9.85144 108.331 9.85144C102.743 9.85144 98.5386 13.9538 98.5386 19.4372C98.5386 24.9206 102.743 29.023 108.331 29.023ZM61.0893 17.1264C61.1403 17.2477 61.2446 17.2988 61.3467 17.2988H65.0512C65.2725 17.2988 65.43 17.1413 65.3789 16.92C64.3938 12.7453 60.6552 9.84932 55.9145 9.84932C50.2928 9.84932 46.0883 13.9517 46.0883 19.4351C46.0883 24.9184 50.2928 29.0187 55.9145 29.0187C60.6531 29.0187 64.364 26.1568 65.3619 21.948C65.413 21.7267 65.2768 21.5693 65.0534 21.5693H61.3489C61.2276 21.5693 61.1276 21.6395 61.0914 21.7416C60.2999 23.8098 58.3359 25.1546 55.9187 25.1546C52.744 25.1546 50.2311 22.7779 50.2311 19.4308C50.2311 16.0838 52.7504 13.707 55.9187 13.707C58.3316 13.707 60.3509 15.0497 61.0914 17.1179M71.7113 18.3946C71.7113 15.6029 73.5731 13.7049 76.4712 13.7049C79.3692 13.7049 81.0247 15.6029 81.0247 18.3946V28.2718C81.0247 28.4272 81.1609 28.5655 81.3183 28.5655H84.8015C84.9569 28.5655 85.0952 28.4293 85.0952 28.2718V17.603C85.0952 12.9495 82.1631 9.84506 77.6096 9.84506C75.0902 9.84506 72.956 10.809 71.6794 12.6006V3.01907C71.6794 2.86161 71.5432 2.72543 71.3857 2.72543H67.9387C67.7833 2.72543 67.645 2.86161 67.645 3.01907V28.2952C67.645 28.4527 67.7812 28.5889 67.9387 28.5889H71.4219C71.5793 28.5889 71.7155 28.4527 71.7155 28.2952V18.3924L71.7113 18.3946ZM175.831 28.5655C175.986 28.5655 176.125 28.4293 176.125 28.2718V25.0674C176.125 24.9099 175.989 24.7737 175.831 24.7737H173.882C173.297 24.7737 172.848 24.3248 172.848 23.7396V3.01907C172.848 2.86161 172.712 2.72543 172.554 2.72543H169.071C168.916 2.72543 168.777 2.86161 168.777 3.01907V25.0397C168.777 27.1101 170.297 28.5931 172.365 28.5931H175.833L175.829 28.5634L175.831 28.5655ZM142.482 7.18105H145.014C145.176 7.18105 145.308 7.04913 145.308 6.88741V2.64032C145.308 2.4786 145.176 2.34668 145.014 2.34668H140.773C140.612 2.34668 140.48 2.4786 140.48 2.64032V5.17666C140.48 6.27673 141.38 7.17892 142.482 7.17892V7.18105Z" fill="black"/>
</svg>
