<svg width="140" height="48" viewBox="0 0 140 48" fill="none" xmlns="http://www.w3.org/2000/svg">
<path d="M32.2146 18.1689C31.7714 17.0622 30.6916 15.8671 28.6693 16.0312C26.0932 16.3113 25.2904 18.7801 25.6798 20.2528C24.6538 19.5581 22.9092 19.2526 21.3864 20.557C19.4203 22.5279 20.4719 25.1933 21.5528 25.8326C20.3616 25.7223 18.4789 26.5272 18.0625 28.6328C17.6194 31.247 19.6122 32.771 21.5528 32.771H43.0713C45.3152 32.771 46.5602 30.8297 46.4206 28.9989C46.2005 26.6095 44.014 25.6928 42.8213 25.8892C43.8177 25.3332 45.1485 22.7217 43.1249 20.6687C41.5186 19.1408 39.4709 19.6967 38.7508 20.3631C39.139 19.0867 38.5025 16.4483 35.8972 16.031C35.717 16.0108 35.5436 16 35.3784 16C33.3896 16.0003 32.4953 17.4541 32.2146 18.1689Z" fill="white"/>
<path d="M21.7448 20.973C20.6087 22.0014 20.1952 24.3317 22.2432 25.694L30.4135 31.2994L26.452 22.2235C25.6218 20.0818 23.3509 19.6148 21.7448 20.973Z" fill="#101010"/>
<path d="M28.7779 16.5603C27.4498 16.5874 25.4555 18.1689 26.343 20.5839L30.4403 30.247L31.8801 20.0833C32.2132 17.5579 30.302 16.3921 28.7779 16.5603Z" fill="#101010"/>
<path d="M32.5194 19.6957H33.2942C33.2942 19.6957 33.7079 19.6957 33.7642 19.8908C33.4593 20.1398 32.6295 20.171 32.7397 21.5009L34.0421 30.2456L38.1114 20.5572C38.9437 18.394 37.1966 16.5873 35.6468 16.5321C35.5745 16.5269 35.5018 16.5227 35.4266 16.5227C34.0356 16.5227 32.4415 17.5336 32.5194 19.6957Z" fill="#101010"/>
<path d="M37.9476 22.3058L34.0987 31.2728L42.2666 25.6378C44.1494 24.3023 43.8457 22.1672 42.7918 21.1119C42.3499 20.6151 41.5387 20.2314 40.6793 20.2314C39.664 20.2312 38.5774 20.7698 37.9476 22.3058Z" fill="#101010"/>
<path d="M41.3521 26.9138L33.6814 32.2717H43.1262C45.0639 32.2717 46.3091 30.2738 45.7556 28.4404C45.3848 27.288 44.2879 26.3834 43.0147 26.3821C42.4788 26.3823 41.9105 26.5437 41.3521 26.9138Z" fill="#101010"/>
<path d="M21.5247 32.2715H30.8301L23.1575 26.9136C21.385 25.7748 19.3919 26.4412 18.6723 28.3311C18.0624 30.4945 19.5853 32.2715 21.5247 32.2715Z" fill="#101010"/>
<path d="M48.6758 24.2421C48.6758 26.6003 50.6037 30.8929 57.9649 30.8929C64.7518 30.8929 66.8953 27.7787 66.8953 26.3508H61.641C61.641 26.3508 61.3915 28.2373 58.4275 28.2373C55.4616 28.2373 54.6595 25.7617 54.6595 24.3302C54.6595 22.9042 55.4616 20.5623 58.4275 20.5623C61.3915 20.5623 61.641 22.2047 61.641 22.2047H66.8953C66.8953 20.7751 65.3226 17.7048 57.9649 17.7048C50.6037 17.7048 48.6758 22.2765 48.6758 24.2421Z" fill="white"/>
<path d="M103.78 24.2421C103.78 26.6003 105.71 30.8929 113.069 30.8929C119.855 30.8929 121.999 27.7787 121.999 26.3508H116.749C116.749 26.3508 116.498 28.2373 113.533 28.2373C110.567 28.2373 109.764 25.7617 109.764 24.3302C109.764 22.9042 110.567 20.5623 113.533 20.5623C116.498 20.5623 116.749 22.2047 116.749 22.2047H121.999C121.999 20.7751 120.428 17.7048 113.069 17.7048C105.71 17.7048 103.78 22.2765 103.78 24.2421Z" fill="white"/>
<path d="M81.2553 17.9253V25.9086L75.1404 17.9253H68.2617V30.5702H72.9775V22.4951L78.9853 30.5702H85.9714V17.9253H81.2553Z" fill="white"/>
<path d="M96.3669 27.5493V27.5659H92.4375V25.2442H96.3669V25.2517C97.2059 25.2517 97.8839 25.7674 97.8839 26.4023C97.8839 27.0357 97.2059 27.5493 96.3669 27.5493ZM92.4736 20.3846H96.2597V20.39C96.9012 20.39 97.4213 20.812 97.4213 21.3314C97.4213 21.8528 96.9012 22.2712 96.2597 22.2712V22.2768H92.4736V20.3846ZM100.226 23.8477C101.085 23.8477 102.88 22.8511 102.88 20.9204C102.88 18.1712 97.7601 17.9253 96.9748 17.9253H87.5424V30.5702H96.9748C101.511 30.5702 103.334 29.137 103.334 26.7437C103.334 24.3504 100.226 23.8477 100.226 23.8477Z" fill="white"/>
</svg>
