<svg width="142" height="20" viewBox="0 0 142 20" fill="none" xmlns="http://www.w3.org/2000/svg">
<g clip-path="url(#clip0_1384_640)">
<path d="M53.3115 7.81471V16.6672H50.0776V7.81471H46.8105V4.99756H56.5795V7.81471H53.3124H53.3115Z" fill="white"/>
<path d="M64.1282 13.1497H58.9938C59.0936 14.1162 59.66 14.5495 60.4777 14.5495C61.2445 14.5495 61.8784 14.3823 62.7451 13.9323L63.8954 15.8495C62.8125 16.4824 61.6945 16.8493 60.3289 16.8493C57.6947 16.8493 56.2441 14.9819 56.2441 12.2978C56.2441 9.28112 57.9442 7.73071 60.2448 7.73071C62.5455 7.73071 64.1458 9.31438 64.1458 12.5649C64.1458 12.8153 64.1458 12.9982 64.1291 13.1488L64.1282 13.1497ZM60.1607 9.94821C59.477 9.94821 59.0936 10.4148 58.9938 11.2815H61.4949C61.3443 10.3982 61.044 9.94821 60.1607 9.94821Z" fill="white"/>
<path d="M69.7108 16.8493C67.1441 16.8493 65.6103 15.2157 65.6103 12.2655C65.6103 9.5814 66.9778 7.73071 69.7773 7.73071C71.4275 7.73071 72.3783 8.4976 73.1452 9.73108L71.0783 11.2981C70.6616 10.5312 70.3779 10.1644 69.7284 10.1644C68.9606 10.1644 68.578 10.9313 68.578 12.3145C68.578 13.6976 68.9948 14.4146 69.8115 14.4146C70.3779 14.4146 70.778 14.0977 71.3287 13.2809L73.2293 14.7648C72.2129 16.2653 71.2621 16.8493 69.7117 16.8493H69.7108Z" fill="white"/>
<path d="M79.9446 16.6662V11.6981C79.9446 10.5644 79.5611 10.2651 78.9449 10.2651C78.3286 10.2651 77.9276 10.5654 77.9276 11.6649V16.6662H74.9275V5.71365L77.9276 4.51343V8.49754C78.4773 8.08083 79.0945 7.73065 80.1284 7.73065C82.0457 7.73065 82.9632 9.01403 82.9632 11.3147V16.6662H79.9455H79.9446Z" fill="white"/>
<path d="M90.145 16.8492C86.6774 16.8492 84.8267 14.2815 84.8267 10.8315C84.8267 7.08111 87.0276 4.81372 90.1617 4.81372C93.0296 4.81372 94.1633 6.0472 94.9635 8.24807L92.0299 9.3984C91.6123 8.3146 91.2131 7.63087 90.1459 7.63087C88.796 7.63087 88.2121 8.98077 88.2121 10.8315C88.2121 12.6821 88.7785 14.0321 90.1792 14.0321C91.1956 14.0321 91.6298 13.4823 92.2627 12.3819L94.9967 13.8325C94.2132 15.3662 92.9123 16.8501 90.1459 16.8501L90.145 16.8492Z" fill="white"/>
<path d="M102.377 11.215C101.994 10.7983 101.561 10.4814 100.978 10.4814C100.244 10.4814 99.793 10.8316 99.793 11.8978V16.6654H96.7929V7.91463H99.793V8.54847C100.31 8.04861 100.893 7.73169 101.66 7.73169C102.293 7.73169 102.727 7.88137 103.077 8.0985L102.376 11.2159L102.377 11.215Z" fill="white"/>
<path d="M109.51 16.6663V16.0823C108.976 16.499 108.343 16.8501 107.327 16.8501C105.41 16.8501 104.492 15.5668 104.492 13.2652V7.91455H107.51V12.8827C107.51 14.0154 107.893 14.3157 108.51 14.3157C109.126 14.3157 109.509 14.0154 109.509 12.915V7.91455H112.527V16.6672H109.509L109.51 16.6663Z" fill="white"/>
<path d="M119.711 16.6664V11.6982C119.711 10.5645 119.327 10.2652 118.711 10.2652C118.095 10.2652 117.694 10.5655 117.694 11.665V16.6664H114.694V7.91463H117.694V8.49858C118.244 8.08187 118.861 7.73169 119.895 7.73169C121.812 7.73169 122.729 9.01507 122.729 11.3157V16.6673H119.712L119.711 16.6664Z" fill="white"/>
<path d="M128.576 16.8493C126.009 16.8493 124.476 15.2157 124.476 12.2655C124.476 9.5814 125.843 7.73071 128.643 7.73071C130.293 7.73071 131.244 8.4976 132.011 9.73108L129.944 11.2981C129.527 10.5312 129.243 10.1644 128.594 10.1644C127.826 10.1644 127.443 10.9313 127.443 12.3145C127.443 13.6976 127.86 14.4146 128.677 14.4146C129.243 14.4146 129.643 14.0977 130.194 13.2809L132.095 14.7648C131.078 16.2653 130.128 16.8493 128.577 16.8493H128.576Z" fill="white"/>
<path d="M138.81 16.6662V11.6981C138.81 10.5644 138.426 10.2651 137.81 10.2651C137.194 10.2651 136.793 10.5654 136.793 11.6649V16.6662H133.793V5.71365L136.793 4.51343V8.49754C137.343 8.08083 137.96 7.73065 138.994 7.73065C140.911 7.73065 141.829 9.01403 141.829 11.3147V16.6662H138.811H138.81Z" fill="white"/>
<path d="M0 0V6.66636H6.66636V20H13.3336V6.66636H20V0H0Z" fill="white"/>
<path d="M26.6664 13.3335V6.66626H20V19.9999H40V13.3335H26.6664Z" fill="white"/>
<path d="M40 0H26.6664V6.66636H40V0Z" fill="white"/>
</g>
<defs>
<clipPath id="clip0_1384_640">
<rect width="141.828" height="20" fill="white"/>
</clipPath>
</defs>
</svg>
