<svg width="220" height="64" viewBox="0 0 220 64" fill="none" xmlns="http://www.w3.org/2000/svg">
<path d="M88.936 15.0999V15.7839L89.571 15.9299C90.547 16.1739 90.694 16.7599 91.084 18.6149L92.1 23.8299L89.268 39.0629L85.411 19.9229C84.971 17.8229 84.825 16.2609 86.388 15.9189L87.12 15.7729V15.0999H78V15.7839L78.928 16.0289C79.856 16.2729 80.246 16.7119 80.881 19.5929L87.081 48.9359H88.681L92.831 26.7699L97.431 48.9359H98.701L104.658 20.4999C105.342 17.2299 105.635 16.2999 106.808 15.9999L107.735 15.7549V15.0999H101.035V15.7839L102.06 15.9789C103.525 16.2719 103.866 17.1989 103.182 20.9589L99.53 39.0629L95.83 19.9229C95.43 18.0189 95.195 16.2609 96.807 15.9679L97.881 15.7729V15.0889L88.936 15.0999ZM132.38 15.1919V15.8759L133.6 16.1689C134.673 16.4129 135.113 16.8039 135.113 18.1709V41.8509C135.113 44.4869 135.113 47.9539 132.378 47.9539C130.816 47.9539 129.598 46.5869 129.694 45.6589C129.791 44.1459 132.428 44.2429 132.574 41.8019C132.721 40.1019 131.646 39.3019 130.572 39.1649C129.059 38.9699 127.204 40.2389 127.154 42.7779C127.106 46.0479 129.254 49.0259 132.914 49.0259C136.964 49.0259 139.614 46.2939 139.614 41.0689L139.615 18.2189C139.615 16.8519 139.957 16.4119 140.933 16.1689L142 15.8649V15.1809L132.38 15.1919ZM115.93 14.9839C111.78 14.9839 109.437 18.4509 109.437 22.9909C109.437 31.4379 120.325 34.7089 120.325 42.3259C120.325 45.9389 118.811 47.9399 116.625 47.9399C113.355 47.9399 111.01 43.9869 110.425 37.6879H109.693V48.8199H110.279C110.767 47.2199 111.402 47.0629 111.939 47.0629C112.867 47.0629 113.842 49.0129 116.674 49.0129C121.019 49.0129 123.85 45.2549 123.852 40.0769C123.852 29.9219 112.964 27.4319 112.964 20.1569C112.964 18.4969 113.452 16.0569 115.894 16.0569C119.41 16.0569 120.924 20.6949 121.509 26.3099H122.241V15.1799H121.655C121.411 16.2539 120.972 16.7419 120.337 16.7419C119.214 16.7419 118.637 14.9849 115.943 14.9849L115.93 14.9839ZM123.79 24.5589V24.6789L123.813 24.6649L123.801 24.5649L123.79 24.5589Z" fill="black"/>
<g clip-path="url(#clip0_1603_560)">
<path d="M200.024 37.8024C199.492 37.8024 199.048 38.2604 199.048 38.8786C199.048 39.4964 199.492 39.9544 200.024 39.9544C200.556 39.9544 201 39.4964 201 38.8786C201 38.2604 200.556 37.8024 200.024 37.8024ZM164.706 39.8854H169.187V39.4736L168.7 39.359C168.256 39.2445 168.056 38.9928 168.056 38.3516V32.126H169.099C169.742 32.126 170.075 32.2861 170.119 33.6826L170.23 36.6123C170.319 39.2445 171.051 39.9772 172.294 39.9772C173.558 39.9772 173.891 39.0843 173.891 37.8255V37.2988H173.424V37.6878C173.424 38.5351 173.314 39.1302 173.003 39.1302C172.715 39.1302 172.692 38.9014 172.626 37.8483L172.493 35.8343C172.315 33.1331 171.983 32.1946 170.052 31.8281C171.894 31.3249 173.025 29.9284 173.025 27.9369C173.025 25.3503 171.051 24.1143 169.165 24.1143H161.6V24.5264L162.022 24.6178C162.82 24.8011 162.843 25.236 162.843 27.0902V36.2002C162.843 38.2376 162.288 39.2217 161.023 39.2217C159.892 39.2217 159.271 38.6494 159.271 36.429V25.6022C159.271 24.9613 159.47 24.7783 159.958 24.6637L160.557 24.5264V24.1143H155.921V24.5264L156.409 24.6637C156.853 24.8011 157.008 24.9844 157.008 25.625V36.2689C157.008 38.6722 158.361 40 160.425 40C162.488 40 163.508 38.6722 163.508 36.2002V26.266C163.508 25.03 163.752 24.595 164.728 24.595C165.505 24.595 165.838 24.8698 165.838 25.625V38.3516C165.838 38.9928 165.638 39.2217 165.194 39.3363L164.706 39.4736V39.8854ZM194.478 25.625C194.478 24.9844 194.678 24.7783 195.121 24.6865L195.72 24.5492V24.1143H191.106V24.5264L191.594 24.6637C192.038 24.8011 192.237 24.9844 192.237 25.625V38.4437C192.237 39.0615 191.993 39.4049 191.305 39.4049C190.507 39.4049 190.395 39.1302 190.107 37.7799L187.268 24.0687H186.38L183.674 37.3447C183.363 38.8324 183.208 39.1761 182.609 39.359L182.232 39.4736V39.8854H185.404V39.4736L184.938 39.3818C184.273 39.2445 184.095 38.8786 184.428 37.1387L186.026 28.6465L187.778 37.6423C188.044 38.947 188.022 39.1989 187.068 39.3818L186.602 39.4736V39.8854H198.36V34.6667H197.938C197.717 37.07 197.251 39.3363 195.365 39.3363H194.478V25.625ZM187.556 35.6279V35.0101H184.561L184.473 35.6279H187.556ZM175.177 25.8997V36.8412C175.177 38.4893 175.177 39.2676 174.379 39.4049L173.979 39.4736V39.8854H177.24V39.4736C175.821 39.2676 175.821 38.764 175.821 36.9785V26.5866L175.288 26.083L180.724 39.8854H181.655V27.1588C181.655 25.2819 181.655 24.8698 182.543 24.6178L182.853 24.5264V24.1143H179.503V24.5264L179.88 24.6178C181.012 24.8239 181.012 25.2819 181.012 27.0215V34.987L181.234 34.9183L177.107 24.1143H173.935V24.5264L174.245 24.6178C174.601 24.7324 174.8 25.1445 175.177 25.8997ZM168.056 24.6637H168.943C169.831 24.6637 170.652 25.2588 170.652 28.2347C170.652 31.279 170.031 31.5765 168.788 31.5765H168.056V24.6637ZM153.281 31.8512C153.281 38.4662 152.749 39.4049 151.595 39.4049C150.442 39.4049 149.931 38.4662 149.931 31.8968C149.931 25.5335 150.486 24.6178 151.595 24.6178C152.749 24.6178 153.281 25.5335 153.281 31.8512ZM155.7 31.9886C155.7 27.6165 154.346 24 151.595 24C148.822 24 147.513 27.6165 147.513 31.9886C147.513 36.3835 148.866 40 151.595 40C154.413 40 155.7 36.3835 155.7 31.9886ZM146.205 25.625C146.205 24.9844 146.36 24.7783 146.803 24.6637L147.291 24.5264V24.1143H142.699V24.5264L143.254 24.6637C143.697 24.7783 143.942 24.9385 143.942 25.6022V36.6123C143.942 38.1458 143.808 39.3818 142.699 39.3818C141.989 39.3818 141.457 38.8096 141.479 38.3978C141.545 37.6878 142.699 37.734 142.788 36.5892C142.854 35.7653 142.344 35.4219 141.878 35.3535C141.191 35.2617 140.348 35.8568 140.325 37.0472C140.303 38.5807 141.279 39.9772 142.943 39.9772C144.785 39.9772 146.205 38.6953 146.205 36.2458V25.625ZM72.1079 25.625C72.1079 24.9844 72.3076 24.7783 72.7512 24.6865L73.3503 24.5492V24.1143H68.736V24.5264L69.224 24.6637C69.6676 24.8011 69.8673 24.9844 69.8673 25.625V38.4437C69.8673 39.0615 69.6232 39.4049 68.9354 39.4049C68.1369 39.4049 68.0037 39.1302 67.7154 37.7799L64.8757 24.0687H63.9885L61.2819 37.3447C60.9715 38.8324 60.816 39.1761 60.2172 39.359L59.8398 39.4736V39.8854H63.0124V39.4736L62.5464 39.3818C61.881 39.2445 61.7034 38.8786 62.0363 37.1387L63.6336 28.6006L65.3861 37.6423C65.63 38.947 65.63 39.1989 64.6763 39.3818L64.2103 39.4736V39.8854H75.9903V34.6667H75.5688C75.347 37.07 74.8811 39.3363 72.9954 39.3363H72.1079V25.625ZM133.869 24.6637H134.358C135.733 24.6637 136.199 26.9297 136.354 29.3333H136.776V24.1143H128.723V29.3333H129.144C129.3 26.9297 129.766 24.6637 131.141 24.6637H131.629V38.3516C131.629 38.9928 131.43 39.2217 130.986 39.3363L130.409 39.4736V39.8854H135.201V39.4736L134.513 39.3135C134.091 39.1989 133.869 39.0615 133.869 38.3516V24.6637ZM123.731 31.9655L124.419 31.9886C125.417 32.0114 125.705 32.4007 125.906 34.8958H126.327V28.5322H125.906C125.661 30.5237 125.395 31.3704 124.441 31.3935L123.731 31.4163V24.6638H125.262C126.97 24.6638 127.348 26.8841 127.591 29.3333H128.013V24.1143H120.359V24.5264L120.847 24.6638C121.357 24.8011 121.491 25.1217 121.491 25.6481V38.3516C121.491 38.9928 121.291 39.2217 120.847 39.3363L120.359 39.4736V39.8854H128.235V34.6667H127.813C127.547 37.0472 127.259 39.3363 125.262 39.3363H123.731V31.9655ZM115.368 31.9655L116.056 31.9886C117.054 32.0114 117.342 32.4007 117.542 34.8958H117.963V28.5322H117.542C117.298 30.5237 117.032 31.3704 116.078 31.3935L115.368 31.4163V24.6638H116.899C118.607 24.6638 118.984 26.9297 119.228 29.3333H119.649V24.1143H111.774V24.5264L112.484 24.6638C112.994 24.8011 113.127 25.1217 113.127 25.6481V38.3516C113.127 38.9928 112.927 39.2217 112.484 39.3363L111.996 39.4736V39.8854H119.871V34.6667H119.45C119.184 37.0472 118.895 39.3363 116.899 39.3363H115.368V31.9655ZM106.25 24.6637H106.916C107.803 24.6637 108.624 25.2588 108.624 28.2347C108.624 31.2331 108.003 31.5765 106.76 31.5765H106.25V24.6637ZM102.9 39.8854H107.381V39.4736L106.893 39.359C106.45 39.2445 106.25 38.9928 106.25 38.3516V32.126H107.071C107.714 32.126 108.047 32.4007 108.091 33.6826L108.202 36.6123C108.291 39.2445 109.023 39.9772 110.265 39.9772C111.53 39.9772 111.862 39.0843 111.862 37.8255V37.2988H111.397V37.6878C111.397 38.5351 111.286 39.1302 110.975 39.1302C110.687 39.1302 110.664 38.9014 110.598 37.8483L110.465 35.8343C110.287 33.0644 109.933 32.1946 108.025 31.8281C109.866 31.3249 110.997 29.9284 110.997 27.9369C110.997 25.3503 109.023 24.1143 107.137 24.1143H102.9V24.5264L103.388 24.6637C103.832 24.8011 104.031 24.9844 104.031 25.625V38.3516C104.031 38.9928 103.832 39.2217 103.388 39.3363L102.9 39.4736V39.8854ZM99.5059 24.6637H99.994C101.369 24.6637 101.835 26.9297 101.991 29.3333H102.412V24.1143H94.3591V29.3333H94.7805C94.9358 26.9297 95.4017 24.6637 96.7773 24.6637H97.2653V38.3516C97.2653 38.9928 97.0653 39.2217 96.622 39.3363L96.045 39.4736V39.8854H100.726V39.4736L100.149 39.3363C99.5725 39.1989 99.5059 38.7412 99.5059 38.3516V24.6637ZM94.3811 35.7881C94.3811 31.0957 89.3898 29.8597 89.3898 26.4492C89.3898 25.7168 89.6561 24.6178 90.765 24.6178C92.3623 24.6178 92.9614 26.7467 93.2277 29.3333H93.6492V24.1143H93.3829C93.2719 24.6179 93.0722 24.847 92.7841 24.847C92.2737 24.847 92.0074 24.0228 90.7874 24.0228C88.9017 24.0228 87.6149 25.6481 87.6149 27.7767C87.6149 31.6452 92.6065 33.2702 92.6065 36.8412C92.6065 38.4662 91.8743 39.3818 90.8761 39.3818C89.3898 39.3818 88.4137 37.5739 88.1474 34.6667H87.7259V39.8854H87.9922C88.214 39.1302 88.5023 39.0615 88.7462 39.0615C89.168 39.0615 89.6116 39.9772 90.8981 39.9772C92.8728 39.9772 94.3811 38.2148 94.3811 35.7881ZM79.8504 25.625C79.8504 24.9844 80.0501 24.7783 80.4936 24.6865L81.0927 24.5492V24.1143H76.4784V24.5264L76.9665 24.6637C77.41 24.8011 77.6097 24.9844 77.6097 25.625V38.3516C77.6097 38.9928 77.41 39.2217 76.9665 39.3363L76.4784 39.4736V39.8854H83.7327V34.6667H83.311C83.0895 37.07 82.6235 39.3363 80.7378 39.3363H79.8504V25.625ZM65.164 35.6279V35.0101H62.1694L62.0805 35.6279H65.164ZM52.3416 39.9313H53.2512L55.3142 28.6696H55.0037L57.2664 39.9313H58.0652L60.7718 26.6553C61.0601 25.2588 61.2154 24.7783 61.7479 24.6406L62.1694 24.5264V24.1143H59.0413V24.5264L59.5073 24.6178C60.1727 24.7552 60.3279 25.1673 60.0175 26.861L58.2649 35.7653H58.5312L56.7562 26.3805C56.5786 25.4876 56.4679 24.7552 57.2001 24.6178L57.6879 24.5264V24.1143H53.4064V24.5264L53.6947 24.595C54.1386 24.7093 54.2052 24.9844 54.3825 25.8542L55.0703 29.2646L54.9371 27.2044L53.4064 35.5365H53.6061L51.8091 26.3805C51.6094 25.442 51.5428 24.7324 52.2527 24.595L52.5858 24.5264V24.1143H48.2153V24.5264L48.6368 24.6406C49.0359 24.7552 49.258 24.9613 49.5243 26.2201L52.3416 39.9313ZM40.495 31.9655L41.1828 31.9886C42.181 32.0114 42.4693 32.4007 42.669 34.8958H43.0905V28.5322H42.669C42.4252 30.5237 42.1589 31.3704 41.2049 31.3935L40.495 31.4163V24.6638H42.0258C43.7338 24.6638 44.1111 26.9297 44.355 29.3333H44.7765V24.1143H37.123V24.5264L37.6111 24.6638C38.1213 24.8011 38.2544 25.1217 38.2544 25.6481V38.3516C38.2544 38.9928 38.0547 39.2217 37.6111 39.3363L37.123 39.4736V39.8854H44.9986V34.6667H44.5768C44.3108 37.0472 44.0225 39.3363 42.0258 39.3363H40.495V31.9655ZM26.5409 39.8854H31.0887V39.4736L30.5786 39.359C30.1792 39.2676 29.9129 38.9928 29.9129 38.3516V32.1032H33.2627V38.3516C33.2627 38.9928 32.9968 39.2676 32.5974 39.359L32.0872 39.4736V39.8854H36.635V39.4736L36.1469 39.3363C35.7033 39.2217 35.5034 38.9697 35.5034 38.3291V25.625C35.5034 24.9844 35.7033 24.7783 36.1469 24.6637L36.635 24.5264V24.1143H32.0872V24.5264L32.5974 24.6637C32.9744 24.7783 33.2627 24.9385 33.2627 25.6022V31.485H29.9129V25.6022C29.9129 24.9613 30.1571 24.7783 30.5786 24.6637L31.0887 24.5264V24.1143H26.5409V24.5264L27.029 24.6637C27.4729 24.8011 27.6723 24.9844 27.6723 25.625V38.3516C27.6723 38.9928 27.4729 39.2217 27.029 39.3363L26.5409 39.4736V39.8854ZM23.1466 24.6637H23.6349C25.0102 24.6637 25.4761 26.9297 25.6314 29.3333H26.0529V24.1143H18V29.3333H18.4215C18.5767 26.9297 19.0427 24.6637 20.4179 24.6637H20.906V38.3516C20.906 38.9928 20.7066 39.2217 20.2627 39.3363L19.686 39.4736V39.8854H24.4779V39.4736L23.7902 39.3135C23.3687 39.1989 23.1466 39.0615 23.1466 38.3516V24.6637Z" fill="white"/>
</g>
<defs>
<clipPath id="clip0_1603_560">
<rect width="183" height="16" fill="white" transform="translate(18 24)"/>
</clipPath>
</defs>
</svg>
