<svg width="183" height="12" viewBox="0 0 183 12" fill="none" xmlns="http://www.w3.org/2000/svg">
<g clip-path="url(#clip0_1384_679)">
<path d="M125.13 3.30443C125.13 5.18497 126.295 6.00359 127.83 6.56451L129.494 7.1602C130.522 7.55213 131.109 7.90331 131.109 8.79623C131.109 9.8222 130.189 10.286 128.877 10.286C127.564 10.286 126.273 9.80183 125.227 8.96283V10.9968C126.031 11.5553 127.34 11.9976 128.877 11.9976C131.217 11.9976 133 10.8458 133 8.76147C133 7.10506 132.175 6.09587 130.378 5.44745L128.524 4.77866C127.566 4.44186 127.022 4.10626 127.022 3.26727C127.022 2.33958 127.889 1.89372 129.049 1.89372C130.396 1.89372 131.444 2.39472 132.401 3.12344V1.12544C131.48 0.532153 130.302 0.197754 129.007 0.197754C126.895 0.197754 125.13 1.29204 125.13 3.30443Z" fill="white"/>
<path d="M140.006 0.393066H138.055V11.8225H140.006V0.393066Z" fill="white"/>
<path d="M104.831 0.393066H102.877V11.8225H104.831V0.393066Z" fill="white"/>
<path d="M147.662 2.10461H150.048C152.462 2.10461 153.753 3.64596 153.753 6.10421C153.753 8.56246 152.462 10.093 150.048 10.093H147.662V2.10461ZM145.713 0.393066V11.8214H150.121C153.514 11.8214 155.709 9.58723 155.709 6.10421C155.709 2.62119 153.514 0.393066 150.121 0.393066H145.713Z" fill="white"/>
<path d="M159.832 0.393066V11.8214H166.804V10.093H161.742V6.54648H166.281V4.85411H161.742V2.10461H166.804V0.393066H159.832Z" fill="white"/>
<path d="M174.58 2.06983H176.766C178.061 2.06983 178.791 2.759 178.791 3.81973C178.791 4.88046 178.061 5.56843 176.766 5.56843H174.58V2.06983ZM172.635 0.393044V11.8213H174.58V7.18409H175.964L179.969 11.8213H182.181L178.045 7.11218C179.863 6.83052 180.717 5.73264 180.717 3.81853C180.717 1.58082 179.18 0.391846 176.802 0.391846H172.634L172.635 0.393044Z" fill="white"/>
<path d="M26.3947 3.16649C26.3947 5.077 27.5657 5.9088 29.113 6.47692L30.7934 7.08219C31.8314 7.48011 32.4163 7.83848 32.4163 8.74699C32.4163 9.78735 31.4922 10.2608 30.1702 10.2608C28.8481 10.2608 27.5465 9.76937 26.4894 8.91839V10.9799C27.3008 11.548 28.6228 12.0011 30.1702 12.0011C32.5313 12.0011 34.3244 10.8289 34.3244 8.70984C34.3244 7.02586 33.4938 6.00588 31.6815 5.34308L29.813 4.66229C28.8493 4.3219 28.3028 3.98151 28.3028 3.13053C28.3028 2.18487 29.1718 1.73061 30.3416 1.73061C31.7007 1.73061 32.7579 2.2412 33.7203 2.97832V0.953944C32.795 0.34867 31.6048 0.00708008 30.302 0.00708008C28.1686 0.00708008 26.3935 1.12294 26.3935 3.16529" fill="white"/>
<path d="M85.3999 3.15821C85.3999 5.06872 86.5709 5.90052 88.1182 6.46864L89.7986 7.07391C90.8366 7.47064 91.4227 7.8314 91.4227 8.73872C91.4227 9.77907 90.4974 10.2513 89.1766 10.2513C87.8558 10.2513 86.5517 9.75989 85.4946 8.90891V10.9704C86.3072 11.5374 87.628 11.9916 89.1766 11.9916C91.5365 11.9916 93.3296 10.8182 93.3296 8.70036C93.3296 7.01758 92.499 5.99521 90.6868 5.3336L88.8182 4.65282C87.8557 4.31243 87.308 3.97203 87.308 3.11986C87.308 2.17419 88.177 1.71994 89.3468 1.71994C90.7071 1.71994 91.7643 2.23052 92.7267 2.96884V0.945665C91.8014 0.340392 90.6124 0 89.3096 0C87.1762 0 85.4011 1.11586 85.4011 3.15821" fill="white"/>
<path d="M73.5425 3.15821C73.5425 5.06872 74.7135 5.90052 76.2609 6.46864L77.9413 7.07391C78.9792 7.47064 79.5653 7.8314 79.5653 8.73872C79.5653 9.77907 78.64 10.2513 77.3192 10.2513C75.9984 10.2513 74.6956 9.75989 73.6372 8.90891V10.9704C74.4487 11.5374 75.7707 11.9916 77.3192 11.9916C79.6792 11.9916 81.4722 10.8182 81.4722 8.70036C81.4722 7.01758 80.6404 5.99521 78.8294 5.3336L76.9596 4.65282C75.9972 4.31243 75.4506 3.97203 75.4506 3.11986C75.4506 2.17419 76.3184 1.71994 77.4882 1.71994C78.8486 1.71994 79.9057 2.23052 80.8681 2.96884V0.945665C79.9429 0.340392 78.7539 0 77.451 0C75.3176 0 73.5425 1.11586 73.5425 3.15821Z" fill="white"/>
<path d="M62.0435 0.196533V11.8106H69.0659V10.0535H63.9672V6.45063H68.5397V4.73069H63.9672V1.93565H69.0659V0.196533H62.0435Z" fill="white"/>
<path d="M1.90691 6.70353H4.39872C5.72073 6.70353 6.43747 7.34715 6.43747 8.40548C6.43747 9.46381 5.72073 10.1074 4.39872 10.1074H1.90691V6.70353ZM1.90691 1.89969H4.04035C5.38154 1.89969 6.09828 2.37192 6.09828 3.46861C6.09828 4.56529 5.38034 5.07708 4.04035 5.07708H1.90691V1.89969ZM0 0.196533V11.8106H4.43708C6.85337 11.8106 8.36356 10.6564 8.36356 8.48219C8.36356 7.25247 7.57131 6.17496 6.47583 5.81539C7.32561 5.51216 7.98602 4.60484 7.98602 3.35594C7.98602 1.27524 6.47583 0.196533 4.05833 0.196533H0Z" fill="white"/>
<path d="M41.3396 0.196533H39.3763V11.8106H41.3396V0.196533Z" fill="white"/>
<path d="M19.9021 0.196533V6.96841C19.9021 9.20013 18.9577 10.2405 17.221 10.2405C15.4842 10.2405 14.5398 9.20013 14.5398 6.96841V0.196533H12.5765V7.17696C12.5765 10.3723 14.4643 12 17.221 12C19.9777 12 21.8654 10.3735 21.8654 7.19493V0.196533H19.9021Z" fill="white"/>
<path d="M54.9097 0.196608V7.6217L46.9417 0.015625V11.8107H48.833V4.25614L56.7962 11.9917V0.196608H54.9097Z" fill="white"/>
<path d="M110.426 11.8215H112.304V4.38801L120.209 11.9977V0.392009H118.335V7.69844L110.426 0.21582V11.8215Z" fill="white"/>
</g>
<defs>
<clipPath id="clip0_1384_679">
<rect width="182.181" height="12" fill="white"/>
</clipPath>
</defs>
</svg>
