<svg xmlns="http://www.w3.org/2000/svg" width="100" height="24" viewBox="0 0 146 33" fill="none">
<path d="M25.448 17.0244H16.2C16.0895 17.0244 16 17.114 16 17.2247V19.8284C16 19.939 16.0895 20.0287 16.2 20.0287H24.6194C25.0509 19.099 25.3369 18.0877 25.448 17.0244Z" fill="white"/>
<path d="M23.3658 22.0316H16.2C16.0895 22.0316 16 22.1212 16 22.2318V25.0359C16 25.3124 16.2242 25.5379 16.4999 25.5236C19.2677 25.3799 21.7221 24.0499 23.3658 22.0316Z" fill="white"/>
<path d="M25.448 15.0215H16.2C16.0895 15.0215 16 14.9318 16 14.8212V12.2175C16 12.1069 16.0895 12.0172 16.2 12.0172H24.6194C25.0509 12.9469 25.3369 13.9582 25.448 15.0215Z" fill="white"/>
<path d="M23.3658 10.0143C21.7221 7.996 19.2677 6.66596 16.4999 6.52225C16.2242 6.50793 16 6.73348 16 7.01002V9.81404C16 9.92466 16.0895 10.0143 16.2 10.0143H23.3658Z" fill="white"/>
<path fill-rule="evenodd" clip-rule="evenodd" d="M16 29.0416C23.1797 29.0416 29 23.213 29 16.023C29 8.83296 23.1797 3.00431 16 3.00431C8.8203 3.00431 3 8.83296 3 16.023C3 23.213 8.8203 29.0416 16 29.0416ZM16 32.0459C24.8366 32.0459 32 24.8722 32 16.023C32 7.17373 24.8366 0 16 0C7.16345 0 0 7.17373 0 16.023C0 24.8722 7.16345 32.0459 16 32.0459Z" fill="white"/>
<path d="M50.6787 25.7048C49.3566 25.7048 48.1327 25.4633 47.0071 24.9802C45.8994 24.4971 44.9257 23.8261 44.0859 22.9673C43.2641 22.0906 42.6209 21.0707 42.1563 19.9077C41.7097 18.7268 41.4863 17.4386 41.4863 16.043C41.4863 14.6474 41.7097 13.3681 42.1563 12.2051C42.6209 11.0242 43.2641 10.0043 44.0859 9.14547C44.9257 8.26874 45.8994 7.58884 47.0071 7.10574C48.1327 6.62265 49.3566 6.3811 50.6787 6.3811C52.0009 6.3811 53.2158 6.62265 54.3235 7.10574C55.4491 7.58884 56.4229 8.26874 57.2447 9.14547C58.0845 10.0222 58.7277 11.051 59.1743 12.2319C59.6389 13.3949 59.8711 14.6652 59.8711 16.043C59.8711 17.4207 59.6389 18.7 59.1743 19.8809C58.7277 21.0439 58.0845 22.0637 57.2447 22.9404C56.4229 23.8172 55.4491 24.4971 54.3235 24.9802C53.2158 25.4633 52.0009 25.7048 50.6787 25.7048ZM50.6787 22.8868C51.5899 22.8868 52.4207 22.7168 53.1711 22.3768C53.9394 22.0369 54.6005 21.5627 55.1543 20.9544C55.7082 20.3282 56.137 19.6035 56.4407 18.7805C56.7623 17.9395 56.9231 17.027 56.9231 16.043C56.9231 15.0589 56.7623 14.1553 56.4407 13.3323C56.137 12.4913 55.7082 11.7667 55.1543 11.1584C54.6005 10.5321 53.9394 10.049 53.1711 9.70907C52.4207 9.36912 51.5899 9.19914 50.6787 9.19914C49.7675 9.19914 48.9278 9.36912 48.1595 9.70907C47.4091 10.049 46.7481 10.5232 46.1763 11.1315C45.6225 11.7399 45.1937 12.4645 44.8899 13.3054C44.5862 14.1285 44.4343 15.041 44.4343 16.043C44.4343 17.027 44.5862 17.9395 44.8899 18.7805C45.1937 19.6214 45.6225 20.3461 46.1763 20.9544C46.7481 21.5627 47.4091 22.0369 48.1595 22.3768C48.9278 22.7168 49.7675 22.8868 50.6787 22.8868Z" fill="white"/>
<path d="M62.2002 25.4364V11.3462H64.9606V14.2448L64.4782 14.5669C64.6569 13.9406 65.0053 13.3681 65.5234 12.8492C66.0415 12.3124 66.6579 11.883 67.3726 11.561C68.0873 11.221 68.8198 11.051 69.5702 11.051C70.6422 11.051 71.5355 11.2657 72.2502 11.6951C72.9649 12.1067 73.5009 12.7418 73.8582 13.6007C74.2155 14.4595 74.3942 15.542 74.3942 16.8481V25.4364H71.6338V17.036C71.6338 16.2308 71.5266 15.5688 71.3122 15.05C71.0978 14.5132 70.7673 14.1285 70.3206 13.8959C69.8739 13.6454 69.3201 13.5381 68.659 13.5738C68.123 13.5738 67.6317 13.6633 67.185 13.8422C66.7383 14.0033 66.3453 14.2359 66.0058 14.54C65.6842 14.8442 65.4251 15.202 65.2286 15.6136C65.0499 16.0072 64.9606 16.4366 64.9606 16.9018V25.4364H63.5938C63.3615 25.4364 63.1293 25.4364 62.897 25.4364C62.6647 25.4364 62.4325 25.4364 62.2002 25.4364Z" fill="white"/>
<path d="M83.7998 25.4365V6.6496H91.143C92.483 6.6496 93.689 6.87325 94.761 7.32056C95.8509 7.76787 96.7799 8.41199 97.5482 9.25293C98.3165 10.0939 98.9061 11.0869 99.317 12.232C99.7279 13.3771 99.9334 14.6475 99.9334 16.0431C99.9334 17.4387 99.7279 18.718 99.317 19.881C98.9061 21.0261 98.3165 22.0191 97.5482 22.86C96.7978 23.6831 95.8777 24.3183 94.7878 24.7656C93.6979 25.2129 92.483 25.4365 91.143 25.4365H83.7998ZM86.6942 22.9405L86.6138 22.6453H91.009C91.9559 22.6453 92.7957 22.4932 93.5282 22.1891C94.2786 21.8849 94.9039 21.4555 95.4042 20.9008C95.9223 20.3283 96.3154 19.6305 96.5834 18.8074C96.8514 17.9844 96.9854 17.0629 96.9854 16.0431C96.9854 15.0232 96.8514 14.1107 96.5834 13.3055C96.3154 12.4825 95.9223 11.7847 95.4042 11.2121C94.8861 10.6396 94.2607 10.2012 93.5282 9.89705C92.7957 9.59288 91.9559 9.4408 91.009 9.4408H86.5334L86.6942 9.19925V22.9405Z" fill="white"/>
<path d="M109.424 25.7048C107.976 25.7048 106.69 25.4006 105.564 24.7923C104.457 24.1661 103.581 23.3162 102.938 22.2427C102.313 21.1691 102 19.9345 102 18.5389C102 17.4296 102.179 16.4187 102.536 15.5062C102.893 14.5937 103.385 13.8064 104.01 13.1444C104.653 12.4645 105.413 11.9456 106.288 11.5878C107.181 11.212 108.146 11.0242 109.182 11.0242C110.094 11.0242 110.942 11.2031 111.728 11.5609C112.515 11.9009 113.193 12.375 113.765 12.9834C114.355 13.5917 114.801 14.3164 115.105 15.1573C115.427 15.9803 115.579 16.8839 115.561 17.868L115.534 19.0489H104.037L103.42 16.8481H113.149L112.747 17.3044V16.6602C112.693 16.0698 112.497 15.542 112.157 15.0768C111.818 14.6116 111.389 14.2448 110.871 13.9764C110.353 13.708 109.79 13.5738 109.182 13.5738C108.218 13.5738 107.405 13.7617 106.744 14.1374C106.083 14.4953 105.582 15.032 105.243 15.7477C104.903 16.4455 104.734 17.3133 104.734 18.3511C104.734 19.3351 104.939 20.194 105.35 20.9276C105.761 21.6433 106.342 22.1979 107.092 22.5915C107.842 22.9852 108.709 23.182 109.692 23.182C110.388 23.182 111.032 23.0657 111.621 22.8331C112.229 22.6005 112.881 22.18 113.578 21.5717L114.971 23.5309C114.542 23.9603 114.015 24.3361 113.39 24.6581C112.783 24.9802 112.13 25.2396 111.434 25.4364C110.755 25.6154 110.085 25.7048 109.424 25.7048Z" fill="white"/>
<path d="M124.434 25.7048C123.129 25.7048 121.959 25.3828 120.923 24.7386C119.904 24.0945 119.091 23.2178 118.484 22.1085C117.894 20.9992 117.6 19.7556 117.6 18.3779C117.6 17.0002 117.894 15.7567 118.484 14.6474C119.091 13.5381 119.904 12.6613 120.923 12.0172C121.959 11.3731 123.129 11.051 124.434 11.051C125.684 11.051 126.819 11.3105 127.837 11.8293C128.873 12.3303 129.66 13.0192 130.196 13.8959L128.668 15.7746C128.382 15.3631 128.016 14.9873 127.569 14.6474C127.123 14.3074 126.649 14.039 126.149 13.8422C125.649 13.6454 125.166 13.547 124.702 13.547C123.844 13.547 123.076 13.7617 122.397 14.1911C121.736 14.6026 121.209 15.1752 120.816 15.9088C120.423 16.6424 120.226 17.4654 120.226 18.3779C120.226 19.2904 120.431 20.1135 120.842 20.8471C121.253 21.5628 121.798 22.1353 122.477 22.5647C123.156 22.9941 123.907 23.2089 124.728 23.2089C125.211 23.2089 125.675 23.1283 126.122 22.9673C126.587 22.8063 127.033 22.5647 127.462 22.2427C127.891 21.9206 128.293 21.527 128.668 21.0618L130.196 22.9405C129.624 23.7456 128.802 24.4076 127.73 24.9265C126.676 25.4454 125.577 25.7048 124.434 25.7048Z" fill="white"/>
<path d="M134.719 21.035L134.585 18.0291L141.312 11.3463H145.037L134.719 21.035ZM132.2 25.4365V6.6095H134.961V25.4365H132.2ZM141.687 25.4365L136.381 19.2368L138.337 17.4386L145.225 25.4365H141.687Z" fill="white"/>
</svg>