<svg width="72" height="18" viewBox="0 0 72 18" fill="none" xmlns="http://www.w3.org/2000/svg">
<path fill-rule="evenodd" clip-rule="evenodd" d="M40.7896 5.86141C41.6979 5.36648 42.6057 5.11854 43.7615 5.11854C46.569 5.11854 48.7156 7.59604 48.7156 10.9809C48.7156 15.2746 46.0736 17.9995 41.6974 17.9995C40.1282 17.9995 38.5591 17.7516 37.0728 17.4212C37.1558 15.687 37.2393 5.11854 37.0728 3.13693C36.9093 2.14564 36.6604 1.7332 35.918 1.56822L35.3401 1.48574V0.990332L40.8725 0C40.7896 0.825356 40.7896 3.21941 40.7896 5.86141ZM40.8716 17.0087C41.1186 17.0907 41.532 17.0907 41.8624 17.0907C43.5965 17.0907 44.8353 14.5317 44.8358 11.2279C44.8358 8.58637 43.845 6.43978 42.0274 6.43978C41.614 6.43978 41.284 6.52227 40.7886 6.68772C40.7066 10.9809 40.7886 15.8529 40.8716 17.0087Z" fill="white"/>
<path d="M0 0.329952H14.5322L14.6151 5.20151L13.7893 5.44945C12.964 2.97195 11.8082 1.5687 9.57814 1.5687H6.68867C6.60571 3.1374 6.52322 5.7794 6.52322 8.58685L8.50436 8.50389C9.74311 8.50389 10.3201 7.51355 10.5685 6.10983H11.3118V11.9703H10.5685C10.3205 10.567 9.74311 9.57623 8.50436 9.57623L6.52275 9.49374C6.52275 11.6399 6.60523 13.374 6.6882 14.4478C6.85317 16.017 7.26609 16.7598 8.33939 16.8418L9.3302 17.0078V17.6682H0V17.0078L0.825833 16.8418C1.89913 16.7603 2.31157 16.017 2.47655 14.4478C2.642 11.8892 2.72496 6.52179 2.47655 3.54937C2.31205 1.98066 1.89865 1.32028 0.825833 1.15531L0 1.07282V0.329952Z" fill="white"/>
<path fill-rule="evenodd" clip-rule="evenodd" d="M25.4316 11.4763C25.4316 7.76101 23.3674 4.95356 19.2388 4.95356C15.1101 4.95356 12.7985 7.92598 12.7985 11.4763C12.7985 15.1921 14.8626 18 18.9908 18C23.1195 18 25.4316 15.0266 25.4316 11.4763ZM16.6788 11.4763C16.6788 8.25641 17.1742 5.77939 18.9908 5.77939C20.7254 5.77939 21.5503 8.3389 21.5503 11.4763C21.5503 14.6962 21.054 17.1732 19.1563 17.1732C17.5046 17.1732 16.6788 14.6137 16.6788 11.4763Z" fill="white"/>
<path fill-rule="evenodd" clip-rule="evenodd" d="M56.1462 4.95356C51.935 4.95356 49.7884 8.17392 49.7884 11.5593C49.7884 15.3575 52.4304 17.9995 56.1462 18C58.4577 18 60.2739 16.8433 61.0997 15.6875L60.7702 15.275C59.9439 15.8534 59.2836 16.1829 57.9623 16.1829C54.9894 16.1829 53.5032 13.9533 53.5862 10.8984H61.2652C61.2652 7.51354 59.613 4.95356 56.1462 4.95356ZM57.4669 9.9076L53.5862 9.99057C53.6682 8.09096 54.4125 5.77939 55.8157 5.77939C57.219 5.77939 57.4669 8.25641 57.4669 9.9076Z" fill="white"/>
<path d="M67.2944 4.95356C68.7806 4.95356 70.1014 5.20102 71.0922 5.61441L71.1766 8.8343L70.5992 8.99928C69.8549 6.76972 68.8641 5.8614 67.3788 5.8614C66.388 5.8614 65.6437 6.60475 65.6437 7.67804C65.6437 8.75182 66.4686 9.32971 68.7811 10.2376C70.9277 11.0639 71.8365 12.0542 71.8365 13.7883C71.8365 16.3474 69.7719 17.9995 66.5516 17.9995C64.9824 17.9995 63.1662 17.6686 62.1754 17.2562L62.0924 13.6234L62.6708 13.4574C63.5786 15.9349 64.7354 16.8428 66.3036 16.8428C67.6248 16.8428 68.3682 15.9349 68.3682 14.9441C68.3682 13.9533 67.7898 13.375 65.7262 12.6326C63.7422 11.9717 62.3399 11.0639 62.3399 8.91679C62.3399 6.76972 64.24 4.95356 67.2944 4.95356Z" fill="white"/>
<path d="M30.9635 7.84397C32.2843 4.87107 34.7617 4.45911 36.165 5.28399L34.8438 8.6698C33.1926 7.59651 31.3759 8.09144 30.9635 8.6698C30.8805 10.6514 30.8805 13.7888 31.0455 15.358C31.1285 16.3479 31.3764 16.8433 32.2018 16.9262L33.1926 17.0092V17.6696H25.514V17.0092L26.0919 16.9262C26.8358 16.8433 27.1652 16.3479 27.2482 15.358C27.3307 13.6243 27.4132 10.156 27.2482 8.1744C27.1652 7.10063 26.8358 6.68819 26.0919 6.60522L25.514 6.52273V6.02733L31.0455 4.95403L30.9635 7.84397Z" fill="white"/>
</svg>
