<svg width="24" height="20" viewBox="0 0 24 20" fill="none" xmlns="http://www.w3.org/2000/svg">
<path d="M7.54753 19.5012C16.6042 19.5012 21.5578 11.9979 21.5578 5.49098C21.5578 5.27789 21.5578 5.06573 21.5434 4.85452C22.507 4.15744 23.3389 3.29442 24 2.30573C23.1014 2.70394 22.148 2.96503 21.1718 3.08044C22.1995 2.46525 22.9692 1.49691 23.3366 0.356906C22.3701 0.930422 21.3126 1.33467 20.2099 1.55212C19.2789 0.562078 17.9786 0 16.6196 0C13.9158 0 11.691 2.22487 11.691 4.92862C11.691 5.30372 11.7338 5.67764 11.8185 6.04298C7.86145 5.84466 4.16948 3.97294 1.67039 0.898359C0.370828 3.13552 1.04325 6.03473 3.19486 7.47145C2.41134 7.44825 1.64466 7.23684 0.96 6.85514V6.91753C0.960656 9.25256 2.62158 11.2821 4.91039 11.7444C4.18552 11.9421 3.42478 11.971 2.68706 11.8289C3.33052 13.8298 5.18602 15.209 7.28738 15.2484C5.54409 16.6185 3.38939 17.3626 1.17216 17.3604C0.780375 17.3597 0.388969 17.336 0 17.2894C2.25159 18.7343 4.87219 19.5009 7.54753 19.4974" fill="#1DA1F2"/>
</svg>
